{
  "source": "C:\\Users\\Peter\\Desktop\\stuff\\MIUN\\quantitative_research\\video_compression\\videos\\UVG\\HoneyBee_1920x1080_120fps_420_8bit_YUV.y4m",
  "output": "C:\\Users\\Peter\\Desktop\\stuff\\MIUN\\quantitative_research\\video_compression\\compressed_videos\\UVG\\h264\\1\\HoneyBee_1920x1080_120fps_420_8bit_YUV_h264.mp4",
  "codec": "h264",
  "ok": "[yuv4mpegpipe @ 000001c58e3e5e00] Stream #0: not enough frames to estimate rate; consider increasing probesize\nInput #0, yuv4mpegpipe, from 'C:\\Users\\Peter\\Desktop\\stuff\\MIUN\\quantitative_research\\video_compression\\videos\\UVG\\HoneyBee_1920x1080_120fps_420_8bit_YUV.y4m':\n  Duration: 00:00:05.00, start: 0.000000, bitrate: 2985989 kb/s\n  Stream #0:0: Video: rawvideo (I420 / 0x30323449), yuv420p(progressive), 1920x1080, 120 fps, 120 tbr, 120 tbn\n[out#0/mp4 @ 000001c58e3ea600] Codec AVOption b:a (set bitrate (in bits/s)) has not been used for any stream. The most likely reason is either wrong type (e.g. a video option with no video streams) or that it is a private option of some decoder which was not actually used for any stream.\nStream mapping:\n  Stream #0:0 -> #0:0 (rawvideo (native) -> h264 (libx264))\nPress [q] to stop, [?] for help\n[libx264 @ 000001c58e3eca80] using cpu capabilities: MMX2 SSE2Fast SSSE3 SSE4.2 AVX FMA3 BMI2 AVX2\n[libx264 @ 000001c58e3eca80] profile High, level 5.1, 4:2:0, 8-bit\n[libx264 @ 000001c58e3eca80] 264 - core 165 r3222 b35605a - H.264/MPEG-4 AVC codec - Copyleft 2003-2025 - http://www.videolan.org/x264.html - options: cabac=1 ref=5 deblock=1:0:0 analyse=0x3:0x113 me=hex subme=8 psy=1 psy_rd=1.00:0.00 mixed_ref=1 me_range=16 chroma_me=1 trellis=2 8x8dct=1 cqm=0 deadzone=21,11 fast_pskip=1 chroma_qp_offset=-2 threads=18 lookahead_threads=3 sliced_threads=0 nr=0 decimate=1 interlaced=0 bluray_compat=0 constrained_intra=0 bframes=3 b_pyramid=2 b_adapt=1 b_bias=0 direct=3 weightb=1 open_gop=0 weightp=2 keyint=250 keyint_min=25 scenecut=40 intra_refresh=0 rc_lookahead=50 rc=cbr mbtree=1 bitrate=1000 ratetol=1.0 qcomp=0.60 qpmin=0 qpmax=69 qpstep=4 vbv_maxrate=1000 vbv_bufsize=1000 nal_hrd=none filler=0 ip_ratio=1.40 aq=1:1.00\nOutput #0, mp4, to 'C:\\Users\\Peter\\Desktop\\stuff\\MIUN\\quantitative_research\\video_compression\\compressed_videos\\UVG\\h264\\1\\HoneyBee_1920x1080_120fps_420_8bit_YUV_h264.mp4':\n  Metadata:\n    encoder         : Lavf62.3.100\n  Stream #0:0: Video: h264 (avc1 / 0x31637661), yuv420p(tv, progressive), 1920x1080, q=2-31, 1000 kb/s, 120 fps, 15360 tbn\n    Metadata:\n      encoder         : Lavc62.11.100 libx264\n    Side data:\n      cpb: bitrate max/min/avg: 1000000/0/1000000 buffer size: 1000000 vbv_delay: N/A\nframe=    0 fps=0.0 q=0.0 size=       0KiB time=N/A bitrate=N/A speed=N/A elapsed=0:00:00.53    \nframe=    0 fps=0.0 q=0.0 size=       0KiB time=N/A bitrate=N/A speed=N/A elapsed=0:00:01.15    \nframe=    4 fps=2.3 q=56.0 size=       0KiB time=00:00:00.01 bitrate=  23.0kbits/s speed=0.00961x elapsed=0:00:01.73    \nframe=   28 fps= 12 q=49.0 size=       0KiB time=00:00:00.18 bitrate=   2.1kbits/s speed=0.08x elapsed=0:00:02.29    \nframe=   56 fps= 19 q=49.0 size=       0KiB time=00:00:00.41 bitrate=   0.9kbits/s speed=0.142x elapsed=0:00:02.93    \nframe=   82 fps= 23 q=48.0 size=       0KiB time=00:00:00.61 bitrate=   0.6kbits/s speed=0.172x elapsed=0:00:03.58    \nframe=   96 fps= 22 q=47.0 size=       0KiB time=00:00:00.68 bitrate=   0.6kbits/s speed=0.159x elapsed=0:00:04.29    \nframe=  124 fps= 24 q=46.0 size=       0KiB time=00:00:00.98 bitrate=   0.4kbits/s speed=0.193x elapsed=0:00:05.10    \nframe=  153 fps= 26 q=46.0 size=       0KiB time=00:00:01.21 bitrate=   0.3kbits/s speed=0.209x elapsed=0:00:05.82    \nframe=  184 fps= 28 q=46.0 size=       0KiB time=00:00:01.48 bitrate=   0.3kbits/s speed=0.23x elapsed=0:00:06.45    \nframe=  212 fps= 30 q=48.0 size=       0KiB time=00:00:01.71 bitrate=   0.2kbits/s speed=0.24x elapsed=0:00:07.14    \nframe=  233 fps= 30 q=48.0 size=       0KiB time=00:00:01.92 bitrate=   0.2kbits/s speed=0.249x elapsed=0:00:07.74    \nframe=  242 fps= 29 q=49.0 size=       0KiB time=00:00:02.00 bitrate=   0.2kbits/s speed=0.238x elapsed=0:00:08.39    \nframe=  270 fps= 30 q=47.0 size=       0KiB time=00:00:02.23 bitrate=   0.2kbits/s speed=0.248x elapsed=0:00:09.00    \nframe=  298 fps= 31 q=46.0 size=       0KiB time=00:00:02.43 bitrate=   0.2kbits/s speed=0.254x elapsed=0:00:09.58    \nframe=  326 fps= 32 q=46.0 size=       0KiB time=00:00:02.66 bitrate=   0.1kbits/s speed=0.263x elapsed=0:00:10.14    \nframe=  358 fps= 33 q=46.0 size=       0KiB time=00:00:02.93 bitrate=   0.1kbits/s speed=0.271x elapsed=0:00:10.80    \nframe=  382 fps= 33 q=46.0 size=       0KiB time=00:00:03.13 bitrate=   0.1kbits/s speed=0.274x elapsed=0:00:11.41    \nframe=  408 fps= 34 q=46.0 size=       0KiB time=00:00:03.33 bitrate=   0.1kbits/s speed=0.277x elapsed=0:00:12.01    \nframe=  438 fps= 35 q=48.0 size=       0KiB time=00:00:03.56 bitrate=   0.1kbits/s speed=0.281x elapsed=0:00:12.69    \nframe=  470 fps= 35 q=48.0 size=       0KiB time=00:00:03.83 bitrate=   0.1kbits/s speed=0.287x elapsed=0:00:13.35    \nframe=  483 fps= 34 q=48.0 size=       0KiB time=00:00:04.00 bitrate=   0.1kbits/s speed=0.286x elapsed=0:00:14.01    \nframe=  508 fps= 35 q=48.0 size=       0KiB time=00:00:04.15 bitrate=   0.1kbits/s speed=0.283x elapsed=0:00:14.68    \nframe=  532 fps= 34 q=47.0 size=       0KiB time=00:00:04.36 bitrate=   0.1kbits/s speed=0.283x elapsed=0:00:15.43    \nframe=  578 fps= 36 q=40.0 size=     256KiB time=00:00:04.71 bitrate= 444.7kbits/s speed=0.292x elapsed=0:00:16.15    \nframe=  590 fps= 35 q=-1.0 size=     256KiB time=00:00:04.87 bitrate= 430.3kbits/s speed=0.289x elapsed=0:00:16.86    \n[mp4 @ 000001c58e3eb700] Starting second pass: moving the moov atom to the beginning of the file\n[out#0/mp4 @ 000001c58e3ea600] video:279KiB audio:0KiB subtitle:0KiB other streams:0KiB global headers:0KiB muxing overhead: 2.814107%\nframe=  600 fps= 35 q=-1.0 Lsize=     287KiB time=00:00:04.98 bitrate= 471.7kbits/s speed=0.293x elapsed=0:00:16.97    \n[libx264 @ 000001c58e3eca80] frame I:3     Avg QP:44.32  size: 23057\n[libx264 @ 000001c58e3eca80] frame P:151   Avg QP:42.28  size:   979\n[libx264 @ 000001c58e3eca80] frame B:446   Avg QP:47.74  size:   153\n[libx264 @ 000001c58e3eca80] consecutive B-frames:  0.8%  0.0%  0.5% 98.7%\n[libx264 @ 000001c58e3eca80] mb I  I16..4: 64.0% 35.4%  0.7%\n[libx264 @ 000001c58e3eca80] mb P  I16..4:  0.1%  0.0%  0.0%  P16..4:  2.4%  0.1%  6.7%  0.0%  0.0%    skip:90.7%\n[libx264 @ 000001c58e3eca80] mb B  I16..4:  0.0%  0.0%  0.0%  B16..8:  1.7%  0.0%  0.0%  direct: 0.0%  skip:98.2%  L0: 2.3% L1:97.7% BI: 0.0%\n[libx264 @ 000001c58e3eca80] 8x8 transform intra:34.6% inter:94.1%\n[libx264 @ 000001c58e3eca80] direct mvs  spatial:97.3% temporal:2.7%\n[libx264 @ 000001c58e3eca80] coded y,uvDC,uvAC intra: 13.5% 53.9% 14.5% inter: 0.1% 0.3% 0.0%\n[libx264 @ 000001c58e3eca80] i16 v,h,dc,p: 40% 24%  7% 29%\n[libx264 @ 000001c58e3eca80] i8 v,h,dc,ddl,ddr,vr,hd,vl,hu:  8%  4% 16% 11% 14% 13% 13% 10% 11%\n[libx264 @ 000001c58e3eca80] i4 v,h,dc,ddl,ddr,vr,hd,vl,hu: 12%  6% 10% 11% 13% 10% 12%  9% 16%\n[libx264 @ 000001c58e3eca80] i8c dc,h,v,p: 58% 14% 15% 13%\n[libx264 @ 000001c58e3eca80] Weighted P-Frames: Y:0.0% UV:0.0%\n[libx264 @ 000001c58e3eca80] ref P L0: 93.2%  2.3%  2.4%  0.9%  1.1%\n[libx264 @ 000001c58e3eca80] ref B L0: 75.8% 16.5%  6.3%  1.4%\n[libx264 @ 000001c58e3eca80] ref B L1: 98.5%  1.5%\n[libx264 @ 000001c58e3eca80] kb/s:456.08\n",
  "seconds": 17.871477127075195,
  "probe_out": {}
}